<svg width="405" height="490" viewBox="0 0 405 490" fill="none" xmlns="http://www.w3.org/2000/svg">
<path d="M24.7709 40.8025L39.144 1L44.1193 67.8903L55.7284 39.144L99.4006 18.1372L70.1015 46.3306L57.9396 90.0027L67.8903 129.805L70.1015 96.0837L103.823 50.7531L84.4746 103.27L87.7915 153.023L124.83 182.322L129.805 153.023L161.316 137.545L145.837 159.104L141.414 187.85L180.111 208.305L152.471 225.442L109.904 200.565L44.1193 177.347L1 179.558L46.3306 164.632L72.8656 175.689L49.6475 149.706L27.535 96.0837L24.7709 40.8025Z" fill="url(#paint0_linear_69_117)" stroke="#521C5C" stroke-width="3"/>
<path d="M380.229 41.3553L365.856 1.55286L360.881 68.4431L349.272 39.6969L305.599 18.69L334.898 46.8834L347.06 90.5556L337.11 130.358L334.898 96.6365L301.177 51.3059L320.525 103.823L317.209 153.576L280.17 182.875L275.195 153.576L243.684 138.097L259.163 159.657L263.586 188.403L224.889 208.857L252.529 225.995L295.096 201.118L360.881 177.9L404 180.111L358.669 165.185L332.134 176.241L355.353 150.259L377.465 96.6365L380.229 41.3553Z" fill="url(#paint1_linear_69_117)" stroke="#521C5C" stroke-width="3"/>
<path d="M201.671 213.833L180.111 208.305L201.671 255.846L224.889 208.857L201.671 213.833Z" fill="url(#paint2_linear_69_117)" stroke="#521C5C" stroke-width="3"/>
<path d="M86.6859 198.907L55.7284 201.671L146.39 243.685L152.47 225.442L113.221 214.385L86.6859 198.907Z" fill="url(#paint3_linear_69_117)" stroke="#521C5C" stroke-width="3"/>
<path d="M318.314 199.459L349.272 202.224L258.61 244.237L252.53 225.994L291.779 214.938L318.314 199.459Z" fill="url(#paint4_linear_69_117)" stroke="#521C5C" stroke-width="3"/>
<path d="M152.47 225.442L146.39 243.685L172.925 262.48L182.875 283.487L201.671 255.846L180.111 208.305L152.47 225.442Z" fill="url(#paint5_linear_69_117)"/>
<path d="M152.47 225.442L146.39 243.685L172.925 262.48L182.875 283.487L201.671 255.846L180.111 208.305L152.47 225.442Z" fill="url(#paint6_linear_69_117)"/>
<path d="M152.47 225.442L146.39 243.685L172.925 262.48L182.875 283.487L201.671 255.846L180.111 208.305L152.47 225.442Z" fill="url(#paint7_linear_69_117)"/>
<path d="M152.47 225.442L146.39 243.685L172.925 262.48L182.875 283.487L201.671 255.846L180.111 208.305L152.47 225.442Z" fill="url(#paint8_linear_69_117)"/>
<path d="M152.47 225.442L146.39 243.685L172.925 262.48L182.875 283.487L201.671 255.846L180.111 208.305L152.47 225.442Z" fill="url(#paint9_linear_69_117)"/>
<path d="M152.47 225.442L146.39 243.685L172.925 262.48L182.875 283.487L201.671 255.846L180.111 208.305L152.47 225.442Z" stroke="#521C5C" stroke-width="3"/>
<path d="M252.529 225.994L258.61 244.237L231.523 263.586L221.572 284.593L201.671 255.846L224.889 208.857L252.529 225.994Z" fill="url(#paint10_linear_69_117)"/>
<path d="M252.529 225.994L258.61 244.237L231.523 263.586L221.572 284.593L201.671 255.846L224.889 208.857L252.529 225.994Z" fill="url(#paint11_linear_69_117)"/>
<path d="M252.529 225.994L258.61 244.237L231.523 263.586L221.572 284.593L201.671 255.846L224.889 208.857L252.529 225.994Z" fill="url(#paint12_linear_69_117)"/>
<path d="M252.529 225.994L258.61 244.237L231.523 263.586L221.572 284.593L201.671 255.846L224.889 208.857L252.529 225.994Z" fill="url(#paint13_linear_69_117)"/>
<path d="M252.529 225.994L258.61 244.237L231.523 263.586L221.572 284.593L201.671 255.846L224.889 208.857L252.529 225.994Z" fill="url(#paint14_linear_69_117)"/>
<path d="M252.529 225.994L258.61 244.237L231.523 263.586L221.572 284.593L201.671 255.846L224.889 208.857L252.529 225.994Z" stroke="#521C5C" stroke-width="3"/>
<path d="M172.925 262.48L146.39 243.684L157.446 264.691L166.844 269.667L169.055 279.617L161.315 279.064L171.819 336.004L188.403 313.339L182.875 283.487L172.925 262.48Z" fill="url(#paint15_linear_69_117)" stroke="#521C5C" stroke-width="3"/>
<path d="M231.523 263.586L258.61 244.237L247.001 265.797L237.603 270.772L234.839 280.17L242.026 279.617L232.628 337.11L216.044 314.444L221.572 284.593L231.523 263.586Z" fill="url(#paint16_linear_69_117)" stroke="#521C5C" stroke-width="3"/>
<path d="M188.403 313.339L171.819 336.004L188.403 326.606H216.044L232.628 337.11L216.044 314.444L221.572 284.593L201.671 255.846L182.875 283.487L188.403 313.339Z" fill="url(#paint17_linear_69_117)" stroke="#521C5C" stroke-width="3"/>
<path d="M90.0027 246.449L55.7284 201.671L108.246 225.995L90.0027 246.449Z" fill="url(#paint18_linear_69_117)"/>
<path d="M90.0027 246.449L55.7284 201.671L108.246 225.995L90.0027 246.449Z" fill="url(#paint19_linear_69_117)"/>
<path d="M90.0027 246.449L55.7284 201.671L108.246 225.995L90.0027 246.449Z" fill="url(#paint20_linear_69_117)"/>
<path d="M90.0027 246.449L55.7284 201.671L108.246 225.995L90.0027 246.449Z" stroke="#521C5C" stroke-width="3"/>
<path d="M314.997 247.554L349.272 202.224L295.649 227.1L314.997 247.554Z" fill="url(#paint21_linear_69_117)"/>
<path d="M314.997 247.554L349.272 202.224L295.649 227.1L314.997 247.554Z" fill="url(#paint22_linear_69_117)"/>
<path d="M314.997 247.554L349.272 202.224L295.649 227.1L314.997 247.554Z" fill="url(#paint23_linear_69_117)"/>
<path d="M314.997 247.554L349.272 202.224L295.649 227.1L314.997 247.554Z" stroke="#521C5C" stroke-width="3"/>
<path d="M108.245 225.995L90.0027 246.449L122.066 250.318L139.203 240.368L108.245 225.995Z" fill="url(#paint24_linear_69_117)"/>
<path d="M108.245 225.995L90.0027 246.449L122.066 250.318L139.203 240.368L108.245 225.995Z" fill="url(#paint25_linear_69_117)"/>
<path d="M108.245 225.995L90.0027 246.449L122.066 250.318L139.203 240.368L108.245 225.995Z" stroke="#521C5C" stroke-width="3"/>
<path d="M295.649 227.1L314.997 247.554L281.829 251.424L259.716 243.684L295.649 227.1Z" fill="url(#paint26_linear_69_117)"/>
<path d="M295.649 227.1L314.997 247.554L281.829 251.424L259.716 243.684L295.649 227.1Z" fill="url(#paint27_linear_69_117)"/>
<path d="M295.649 227.1L314.997 247.554L281.829 251.424L259.716 243.684L295.649 227.1Z" stroke="#521C5C" stroke-width="3"/>
<path d="M157.446 264.691L146.39 243.684L141.967 264.691L148.048 282.381L150.812 328.265L171.819 365.303V336.004L161.315 279.064L156.34 278.512L151.365 266.903L157.446 264.691Z" fill="url(#paint28_linear_69_117)" stroke="#521C5C" stroke-width="3"/>
<path d="M150.812 328.265L148.048 282.381L138.65 359.775L127.594 399.578L133.122 411.739L171.819 365.303L150.812 328.265Z" fill="url(#paint29_linear_69_117)" stroke="#521C5C" stroke-width="3"/>
<path d="M254.741 329.37L257.505 283.487L266.903 360.881L277.959 400.683L272.431 412.845L233.734 365.303L254.741 329.37Z" fill="url(#paint30_linear_69_117)" stroke="#521C5C" stroke-width="3"/>
<path d="M247.001 265.797L258.61 244.237L263.586 265.797L257.505 283.487L254.741 329.37L233.734 365.303L232.628 337.11L242.026 279.617L248.66 279.064L254.188 268.008L247.001 265.797Z" fill="url(#paint31_linear_69_117)" stroke="#521C5C" stroke-width="3"/>
<path d="M188.403 326.606L171.819 336.004V365.303L188.403 326.606Z" fill="url(#paint32_linear_69_117)" stroke="#521C5C" stroke-width="3"/>
<path d="M216.044 326.606L232.628 337.11L233.734 365.303L216.044 326.606Z" fill="url(#paint33_linear_69_117)" stroke="#521C5C" stroke-width="3"/>
<path d="M190.615 366.409H175.689L202.224 374.701L229.864 366.409H213.833L216.044 357.564L227.1 350.93L216.044 326.606H188.403L177.9 350.377L189.509 357.564L190.615 366.409Z" fill="url(#paint34_linear_69_117)" stroke="#521C5C" stroke-width="3"/>
<path d="M177.9 350.377L171.819 365.303L175.689 366.409H190.615L189.509 357.564L177.9 350.377Z" fill="url(#paint35_linear_69_117)" stroke="#521C5C" stroke-width="3"/>
<path d="M227.1 350.93L233.734 365.303L229.864 366.409H213.833L216.044 357.564L227.1 350.93Z" fill="url(#paint36_linear_69_117)" stroke="#521C5C" stroke-width="3"/>
<path d="M156.34 384.099L171.819 365.303L182.875 368.62L187.851 381.888L202.776 385.757V488.58L156.34 384.099Z" fill="url(#paint37_linear_69_117)" stroke="#521C5C" stroke-width="3"/>
<path d="M133.122 411.739L156.34 384.099L202.776 488.58L144.178 438.274L133.122 411.739Z" fill="url(#paint38_linear_69_117)" stroke="#521C5C" stroke-width="3"/>
<path d="M272.431 412.845L249.213 384.099L202.776 488.58L261.374 439.38L272.431 412.845Z" fill="url(#paint39_linear_69_117)" stroke="#521C5C" stroke-width="3"/>
<path d="M249.213 384.099L233.734 365.303L222.678 368.62L217.702 381.888L202.776 385.757V488.58L249.213 384.099Z" fill="url(#paint40_linear_69_117)" stroke="#521C5C" stroke-width="3"/>
<path d="M202.776 385.757L187.85 381.887L182.875 368.62L202.224 374.701L222.678 368.62L217.702 381.887L202.776 385.757Z" fill="url(#paint41_linear_69_117)" stroke="#521C5C" stroke-width="3"/>
<path d="M157.446 264.691L151.365 266.903L156.34 278.512L169.055 279.617L166.844 269.667L157.446 264.691Z" fill="url(#paint42_linear_69_117)" stroke="#521C5C" stroke-width="3"/>
<path d="M237.604 270.772L247.001 265.797L254.188 268.008L248.66 279.064L234.839 280.17L237.604 270.772Z" fill="url(#paint43_linear_69_117)" stroke="#521C5C" stroke-width="3"/>
<defs>
<linearGradient id="paint0_linear_69_117" x1="90.5555" y1="1" x2="275.748" y2="515.115" gradientUnits="userSpaceOnUse">
<stop stop-color="#4E2358"/>
<stop offset="1" stop-color="#5C0F6D"/>
</linearGradient>
<linearGradient id="paint1_linear_69_117" x1="314.444" y1="1.55285" x2="125.383" y2="661.61" gradientUnits="userSpaceOnUse">
<stop stop-color="#481B51"/>
<stop offset="1" stop-color="#661B75"/>
</linearGradient>
<linearGradient id="paint2_linear_69_117" x1="189.509" y1="224.336" x2="224.889" y2="232.628" gradientUnits="userSpaceOnUse">
<stop stop-color="#ED6826"/>
<stop offset="1" stop-color="#F69C10"/>
</linearGradient>
<linearGradient id="paint3_linear_69_117" x1="83.369" y1="207.199" x2="134.228" y2="228.206" gradientUnits="userSpaceOnUse">
<stop stop-color="#F4651C"/>
<stop offset="1" stop-color="#28E5E1"/>
</linearGradient>
<linearGradient id="paint4_linear_69_117" x1="321.631" y1="207.752" x2="270.772" y2="228.759" gradientUnits="userSpaceOnUse">
<stop stop-color="#F4651C"/>
<stop offset="1" stop-color="#28E5E1"/>
</linearGradient>
<linearGradient id="paint5_linear_69_117" x1="155.787" y1="233.181" x2="193.379" y2="245.896" gradientUnits="userSpaceOnUse">
<stop stop-color="#6D1D74"/>
<stop offset="1" stop-color="#10B1BF"/>
</linearGradient>
<linearGradient id="paint6_linear_69_117" x1="155.787" y1="233.181" x2="193.379" y2="245.896" gradientUnits="userSpaceOnUse">
<stop stop-color="#6D1D74"/>
<stop offset="1" stop-color="#10B1BF"/>
</linearGradient>
<linearGradient id="paint7_linear_69_117" x1="155.787" y1="233.181" x2="193.379" y2="245.896" gradientUnits="userSpaceOnUse">
<stop stop-color="#6D1D74"/>
<stop offset="1" stop-color="#10B1BF"/>
</linearGradient>
<linearGradient id="paint8_linear_69_117" x1="155.787" y1="233.181" x2="193.379" y2="245.896" gradientUnits="userSpaceOnUse">
<stop stop-color="#6D1D74"/>
<stop offset="1" stop-color="#10B1BF"/>
</linearGradient>
<linearGradient id="paint9_linear_69_117" x1="155.787" y1="233.181" x2="193.379" y2="245.896" gradientUnits="userSpaceOnUse">
<stop stop-color="#6D1D74"/>
<stop offset="1" stop-color="#10B1BF"/>
</linearGradient>
<linearGradient id="paint10_linear_69_117" x1="248.66" y1="234.287" x2="211.069" y2="247.001" gradientUnits="userSpaceOnUse">
<stop stop-color="#6D1D74"/>
<stop offset="1" stop-color="#10B1BF"/>
</linearGradient>
<linearGradient id="paint11_linear_69_117" x1="248.66" y1="234.287" x2="211.069" y2="247.001" gradientUnits="userSpaceOnUse">
<stop stop-color="#6D1D74"/>
<stop offset="1" stop-color="#10B1BF"/>
</linearGradient>
<linearGradient id="paint12_linear_69_117" x1="248.66" y1="234.287" x2="211.069" y2="247.001" gradientUnits="userSpaceOnUse">
<stop stop-color="#6D1D74"/>
<stop offset="1" stop-color="#10B1BF"/>
</linearGradient>
<linearGradient id="paint13_linear_69_117" x1="248.66" y1="234.287" x2="211.069" y2="247.001" gradientUnits="userSpaceOnUse">
<stop stop-color="#6D1D74"/>
<stop offset="1" stop-color="#10B1BF"/>
</linearGradient>
<linearGradient id="paint14_linear_69_117" x1="248.66" y1="234.287" x2="211.069" y2="247.001" gradientUnits="userSpaceOnUse">
<stop stop-color="#6D1D74"/>
<stop offset="1" stop-color="#10B1BF"/>
</linearGradient>
<linearGradient id="paint15_linear_69_117" x1="167.949" y1="289.568" x2="182.875" y2="286.251" gradientUnits="userSpaceOnUse">
<stop stop-color="#F1B45C"/>
<stop offset="1" stop-color="#FC258D"/>
</linearGradient>
<linearGradient id="paint16_linear_69_117" x1="235.945" y1="290.674" x2="221.572" y2="287.357" gradientUnits="userSpaceOnUse">
<stop stop-color="#F1B45C"/>
<stop offset="1" stop-color="#FC258D"/>
</linearGradient>
<linearGradient id="paint17_linear_69_117" x1="193.931" y1="296.754" x2="214.938" y2="296.754" gradientUnits="userSpaceOnUse">
<stop stop-color="#E46C27"/>
<stop offset="1" stop-color="#16EDE0"/>
</linearGradient>
<linearGradient id="paint18_linear_69_117" x1="64.0206" y1="217.15" x2="96.0837" y2="231.523" gradientUnits="userSpaceOnUse">
<stop stop-color="#A01181"/>
<stop offset="1" stop-color="#EE0F98"/>
</linearGradient>
<linearGradient id="paint19_linear_69_117" x1="64.0206" y1="217.15" x2="96.0837" y2="231.523" gradientUnits="userSpaceOnUse">
<stop stop-color="#A01181"/>
<stop offset="1" stop-color="#EE0F98"/>
</linearGradient>
<linearGradient id="paint20_linear_69_117" x1="64.0206" y1="217.15" x2="96.0837" y2="231.523" gradientUnits="userSpaceOnUse">
<stop stop-color="#A01181"/>
<stop offset="1" stop-color="#EE0F98"/>
</linearGradient>
<linearGradient id="paint21_linear_69_117" x1="340.979" y1="218.255" x2="308.916" y2="232.628" gradientUnits="userSpaceOnUse">
<stop stop-color="#A01181"/>
<stop offset="1" stop-color="#EE0F98"/>
</linearGradient>
<linearGradient id="paint22_linear_69_117" x1="340.979" y1="218.255" x2="308.916" y2="232.628" gradientUnits="userSpaceOnUse">
<stop stop-color="#A01181"/>
<stop offset="1" stop-color="#EE0F98"/>
</linearGradient>
<linearGradient id="paint23_linear_69_117" x1="340.979" y1="218.255" x2="308.916" y2="232.628" gradientUnits="userSpaceOnUse">
<stop stop-color="#A01181"/>
<stop offset="1" stop-color="#EE0F98"/>
</linearGradient>
<linearGradient id="paint24_linear_69_117" x1="101.612" y1="243.684" x2="125.383" y2="238.156" gradientUnits="userSpaceOnUse">
<stop stop-color="#618067"/>
<stop offset="1" stop-color="#9AC772"/>
</linearGradient>
<linearGradient id="paint25_linear_69_117" x1="101.612" y1="243.684" x2="125.383" y2="238.156" gradientUnits="userSpaceOnUse">
<stop stop-color="#618067"/>
<stop offset="1" stop-color="#9AC772"/>
</linearGradient>
<linearGradient id="paint26_linear_69_117" x1="302.283" y1="244.79" x2="278.512" y2="239.262" gradientUnits="userSpaceOnUse">
<stop stop-color="#618067"/>
<stop offset="1" stop-color="#9AC772"/>
</linearGradient>
<linearGradient id="paint27_linear_69_117" x1="302.283" y1="244.79" x2="278.512" y2="239.262" gradientUnits="userSpaceOnUse">
<stop stop-color="#618067"/>
<stop offset="1" stop-color="#9AC772"/>
</linearGradient>
<linearGradient id="paint28_linear_69_117" x1="165.185" y1="301.177" x2="150.812" y2="305.047" gradientUnits="userSpaceOnUse">
<stop stop-color="#89C43E"/>
<stop offset="1" stop-color="#E96921"/>
</linearGradient>
<linearGradient id="paint29_linear_69_117" x1="172.372" y1="355.905" x2="136.992" y2="397.919" gradientUnits="userSpaceOnUse">
<stop stop-color="#BA2968"/>
<stop offset="1" stop-color="#00FEFB"/>
</linearGradient>
<linearGradient id="paint30_linear_69_117" x1="234.287" y1="348.166" x2="268.561" y2="399.025" gradientUnits="userSpaceOnUse">
<stop stop-color="#BA2968"/>
<stop offset="1" stop-color="#00FEFB"/>
</linearGradient>
<linearGradient id="paint31_linear_69_117" x1="240.368" y1="298.413" x2="255.294" y2="303.388" gradientUnits="userSpaceOnUse">
<stop stop-color="#89C43E"/>
<stop offset="1" stop-color="#E96921"/>
</linearGradient>
<linearGradient id="paint32_linear_69_117" x1="188.403" y1="321.078" x2="162.974" y2="358.669" gradientUnits="userSpaceOnUse">
<stop stop-color="#349DBF"/>
<stop offset="1" stop-color="#1CBDC6"/>
</linearGradient>
<linearGradient id="paint33_linear_69_117" x1="216.044" y1="322.184" x2="241.473" y2="359.775" gradientUnits="userSpaceOnUse">
<stop stop-color="#349DBF"/>
<stop offset="1" stop-color="#1CBDC6"/>
</linearGradient>
<linearGradient id="paint34_linear_69_117" x1="202.776" y1="326.606" x2="203.329" y2="374.701" gradientUnits="userSpaceOnUse">
<stop stop-color="#862D89"/>
<stop offset="1" stop-color="#F5DB2A"/>
</linearGradient>
<linearGradient id="paint35_linear_69_117" x1="181.217" y1="350.377" x2="181.77" y2="401.236" gradientUnits="userSpaceOnUse">
<stop stop-color="#451D51"/>
<stop offset="1" stop-color="#4C185B"/>
</linearGradient>
<linearGradient id="paint36_linear_69_117" x1="223.783" y1="350.93" x2="223.783" y2="387.968" gradientUnits="userSpaceOnUse">
<stop stop-color="#451D51"/>
<stop offset="1" stop-color="#471955"/>
</linearGradient>
<linearGradient id="paint37_linear_69_117" x1="179.558" y1="364.198" x2="202.776" y2="489.133" gradientUnits="userSpaceOnUse">
<stop stop-color="#751068"/>
<stop offset="1" stop-color="#DD0895"/>
</linearGradient>
<linearGradient id="paint38_linear_69_117" x1="150.812" y1="395.708" x2="175.689" y2="467.573" gradientUnits="userSpaceOnUse">
<stop stop-color="#F29022"/>
<stop offset="1" stop-color="#B7272E"/>
</linearGradient>
<linearGradient id="paint39_linear_69_117" x1="254.741" y1="396.813" x2="229.864" y2="468.679" gradientUnits="userSpaceOnUse">
<stop stop-color="#8DB83C"/>
<stop offset="1" stop-color="#E06E1C"/>
</linearGradient>
<linearGradient id="paint40_linear_69_117" x1="225.995" y1="364.198" x2="202.776" y2="489.133" gradientUnits="userSpaceOnUse">
<stop stop-color="#F10D97"/>
<stop offset="1" stop-color="#F3E421"/>
</linearGradient>
<linearGradient id="paint41_linear_69_117" x1="195.59" y1="377.465" x2="234.839" y2="377.465" gradientUnits="userSpaceOnUse">
<stop stop-color="#1BC0C5"/>
<stop offset="1" stop-color="#467BAF"/>
</linearGradient>
<linearGradient id="paint42_linear_69_117" x1="160.21" y1="264.691" x2="166.844" y2="307.258" gradientUnits="userSpaceOnUse">
<stop stop-color="#491951"/>
<stop offset="1" stop-color="#320539"/>
</linearGradient>
<linearGradient id="paint43_linear_69_117" x1="244.514" y1="265.797" x2="244.79" y2="302.283" gradientUnits="userSpaceOnUse">
<stop stop-color="#451B4E"/>
<stop offset="1" stop-color="#381640"/>
</linearGradient>
</defs>
</svg>
