<svg width="418" height="463" viewBox="0 0 418 463" fill="none" xmlns="http://www.w3.org/2000/svg">
<path d="M93.723 5.20642L43.7507 24.5139L82.3657 76.1898L119.845 126.162L124.388 55.7466L159.596 20.5388L93.723 5.20642Z" fill="url(#paint0_linear_99_2)" stroke="#481B53" stroke-width="3"/>
<path d="M324.277 5.20642L374.249 24.5139L298.155 126.162L293.612 55.7466L258.404 20.5388L324.277 5.20642Z" fill="url(#paint1_linear_99_2)" stroke="#481B53" stroke-width="3"/>
<path d="M4 108.558L43.7507 24.5139L82.3657 76.1898L4 108.558Z" fill="url(#paint2_linear_99_2)" stroke="#481B53" stroke-width="3"/>
<path d="M414 108.558L374.249 24.5139L335.634 76.1898L414 108.558Z" fill="url(#paint3_linear_99_2)" stroke="#481B53" stroke-width="3"/>
<path d="M82.3657 76.1898L4 108.558L64.7618 164.209L85.205 206.231L119.845 126.162L82.3657 76.1898Z" fill="url(#paint4_linear_99_2)" stroke="#481B53" stroke-width="3"/>
<path d="M335.634 76.1898L414 108.558L353.238 164.777L332.795 206.799L298.155 126.162L335.634 76.1898Z" fill="url(#paint5_linear_99_2)" stroke="#481B53" stroke-width="3"/>
<path d="M85.2051 206.231L119.845 126.162L150.51 181.245L138.017 197.713L144.263 210.206L125.524 226.107L85.2051 206.231Z" fill="url(#paint6_linear_99_2)" stroke="#481B53" stroke-width="3"/>
<path d="M332.795 206.799L298.155 126.162L267.49 181.813L279.983 198.281L273.737 210.774L292.476 226.675L332.795 206.799Z" fill="url(#paint7_linear_99_2)" stroke="#481B53" stroke-width="3"/>
<path d="M119.845 126.162L124.388 55.7466L138.585 97.7687L136.313 121.619L154.485 134.68L164.139 160.802L150.51 181.245L119.845 126.162Z" fill="url(#paint8_linear_99_2)" stroke="#481B53" stroke-width="3"/>
<path d="M298.155 126.162L293.612 55.7466L279.415 98.3366L281.687 122.187L263.515 135.248L253.861 161.37L267.49 181.813L298.155 126.162Z" fill="url(#paint9_linear_99_2)" stroke="#481B53" stroke-width="3"/>
<path d="M124.388 55.7466L159.595 20.5388L207.864 2.36707V52.9072H181.742L138.584 97.7687L124.388 55.7466Z" fill="url(#paint10_linear_99_2)" stroke="#481B53" stroke-width="3"/>
<path d="M293.612 55.7466L258.405 20.5388L207.864 2.36707V52.8734L234.554 52.9072L279.416 98.3366L293.612 55.7466Z" fill="url(#paint11_linear_99_2)" stroke="#481B53" stroke-width="3"/>
<path d="M136.313 121.619L138.584 97.7687L156.756 105.151L154.485 134.68L136.313 121.619Z" fill="url(#paint12_linear_99_2)" stroke="#481B53" stroke-width="3"/>
<path d="M281.687 122.187L279.416 98.3366L260.676 105.719L263.515 135.248L281.687 122.187Z" fill="url(#paint13_linear_99_2)" stroke="#481B53" stroke-width="3"/>
<path d="M181.742 52.9072L138.584 97.7687L156.756 105.151L154.485 134.68L164.138 160.802L208.432 112.533L181.742 52.9072Z" fill="url(#paint14_linear_99_2)" stroke="#481B53" stroke-width="3"/>
<path d="M234.554 52.9072L279.416 98.3366L260.676 105.719L263.515 135.248L253.862 161.37L208.432 112.533L234.554 52.9072Z" fill="url(#paint15_linear_99_2)" stroke="#481B53" stroke-width="3"/>
<path d="M234.554 52.9072H181.742L208.432 112.533L234.554 52.9072Z" fill="url(#paint16_linear_99_2)" stroke="#481B53" stroke-width="3"/>
<path d="M164.138 160.802L208.432 112.533L253.861 161.37L207.864 146.605L164.138 160.802Z" fill="url(#paint17_linear_99_2)" stroke="#481B53" stroke-width="3"/>
<path d="M150.51 181.245L164.138 160.802L207.864 146.605L171.521 181.813L207.864 178.406L160.731 226.675L155.62 209.071L144.263 210.206L138.017 197.713L150.51 181.245Z" fill="url(#paint18_linear_99_2)" stroke="#481B53" stroke-width="3"/>
<path d="M267.49 181.813L253.862 161.37L207.864 146.605L244.776 182.381L207.864 178.406L255.565 227.242L260.676 209.639L273.737 210.774L279.983 198.281L267.49 181.813Z" fill="url(#paint19_linear_99_2)" stroke="#481B53" stroke-width="3"/>
<path d="M171.521 181.813L207.864 146.605L244.776 182.381L207.864 178.406L171.521 181.813Z" fill="url(#paint20_linear_99_2)" stroke="#481B53" stroke-width="3"/>
<path d="M160.731 226.675L207.864 178.406L255.565 227.242L245.343 245.982L207.864 227.81L170.385 245.982L160.731 226.675Z" fill="url(#paint21_linear_99_2)" stroke="#481B53" stroke-width="3"/>
<path d="M155.62 209.071L144.263 210.206L123.252 255.636V302.769L133.474 320.94H148.238L136.881 310.151V272.104L160.731 226.675L155.62 209.071Z" fill="url(#paint22_linear_99_2)" stroke="#481B53" stroke-width="3"/>
<path d="M260.676 209.639L273.737 210.774L293.612 256.204V303.337L281.119 320.373H268.626L279.983 310.719V272.672L255.565 227.242L260.676 209.639Z" fill="url(#paint23_linear_99_2)" stroke="#481B53" stroke-width="3"/>
<path d="M170.385 245.982L207.864 227.81L245.343 245.982L231.147 282.326L208.432 268.697L184.582 282.326L170.385 245.982Z" fill="url(#paint24_linear_99_2)" stroke="#481B53" stroke-width="3"/>
<path d="M184.582 282.326L208.432 268.697L231.147 282.326V318.669L208.432 310.719L184.582 316.965V282.326Z" fill="url(#paint25_linear_99_2)" stroke="#481B53" stroke-width="3"/>
<path d="M208.432 310.719L231.147 318.669V348.198H184.582V316.965L208.432 310.719Z" fill="url(#paint26_linear_99_2)" stroke="#481B53" stroke-width="3"/>
<path d="M231.147 348.198H184.582V372.616L207.296 379.999L231.147 370.913V348.198Z" fill="url(#paint27_linear_99_2)" stroke="#481B53" stroke-width="3"/>
<path d="M207.296 379.999L184.582 372.616V397.035L207.296 410.663L231.147 397.82V370.913L207.296 379.999Z" fill="url(#paint28_linear_99_2)" stroke="#481B53" stroke-width="3"/>
<path d="M207.296 410.663L184.582 397.035V417.478L207.864 428.835L231.147 416.342V397.815L207.296 410.663Z" fill="url(#paint29_linear_99_2)" stroke="#481B53" stroke-width="3"/>
<path d="M207.864 428.835L184.582 417.478L208.432 459.5L231.147 416.342L207.864 428.835Z" fill="url(#paint30_linear_99_2)" stroke="#481B53" stroke-width="3"/>
<path d="M184.582 397.035V417.478L208.432 459.5L160.731 441.328L153.917 395.899L169.817 408.392L184.582 397.035Z" fill="url(#paint31_linear_99_2)" stroke="#481B53" stroke-width="3"/>
<defs>
<linearGradient id="paint0_linear_99_2" x1="71.0084" y1="37.007" x2="134.609" y2="79.0291" gradientUnits="userSpaceOnUse">
<stop stop-color="#F66A24"/>
<stop offset="1" stop-color="#2AE6E2"/>
</linearGradient>
<linearGradient id="paint1_linear_99_2" x1="374.249" y1="28.489" x2="278.848" y2="65.4003" gradientUnits="userSpaceOnUse">
<stop offset="0.154514" stop-color="#F1621C"/>
<stop offset="1" stop-color="#41DAE1"/>
</linearGradient>
<linearGradient id="paint2_linear_99_2" x1="64.5" y1="54" x2="18.7646" y2="87.5471" gradientUnits="userSpaceOnUse">
<stop stop-color="#E31595"/>
<stop offset="1" stop-color="#891974"/>
</linearGradient>
<linearGradient id="paint3_linear_99_2" x1="350.967" y1="66.536" x2="390.15" y2="92.09" gradientUnits="userSpaceOnUse">
<stop stop-color="#DF1498"/>
<stop offset="1" stop-color="#980E78"/>
</linearGradient>
<linearGradient id="paint4_linear_99_2" x1="38.6399" y1="119.348" x2="110.191" y2="140.927" gradientUnits="userSpaceOnUse">
<stop stop-color="#3CA0BE"/>
<stop offset="1" stop-color="#732079"/>
</linearGradient>
<linearGradient id="paint5_linear_99_2" x1="318.598" y1="141.494" x2="395.828" y2="119.348" gradientUnits="userSpaceOnUse">
<stop stop-color="#74146D"/>
<stop offset="1" stop-color="#15ACC0"/>
</linearGradient>
<linearGradient id="paint6_linear_99_2" x1="85.7729" y1="210.774" x2="137.449" y2="196.578" gradientUnits="userSpaceOnUse">
<stop stop-color="#F2DC46"/>
<stop offset="1" stop-color="#A44D7D"/>
</linearGradient>
<linearGradient id="paint7_linear_99_2" x1="333.363" y1="198.849" x2="278.848" y2="183.517" gradientUnits="userSpaceOnUse">
<stop stop-color="#E4C533"/>
<stop offset="1" stop-color="#9E3D7F"/>
</linearGradient>
<linearGradient id="paint8_linear_99_2" x1="126" y1="133" x2="150" y2="125" gradientUnits="userSpaceOnUse">
<stop offset="0.0868053" stop-color="#F56528"/>
<stop offset="0.862847" stop-color="#C82F30"/>
</linearGradient>
<linearGradient id="paint9_linear_99_2" x1="298" y1="134" x2="268.5" y2="123.5" gradientUnits="userSpaceOnUse">
<stop offset="0.118055" stop-color="#E9581E"/>
<stop offset="0.815972" stop-color="#C52F2E"/>
</linearGradient>
<linearGradient id="paint10_linear_99_2" x1="193.667" y1="35.3034" x2="145.399" y2="67.6718" gradientUnits="userSpaceOnUse">
<stop stop-color="#F11298"/>
<stop offset="0.873264" stop-color="#901379"/>
</linearGradient>
<linearGradient id="paint11_linear_99_2" x1="230.579" y1="33.0319" x2="274.305" y2="74.4862" gradientUnits="userSpaceOnUse">
<stop stop-color="#F615A1"/>
<stop offset="0.847222" stop-color="#9B1178"/>
</linearGradient>
<linearGradient id="paint12_linear_99_2" x1="146.535" y1="97.7687" x2="157.324" y2="171.591" gradientUnits="userSpaceOnUse">
<stop stop-color="#4C2159"/>
<stop offset="1" stop-color="#471057"/>
</linearGradient>
<linearGradient id="paint13_linear_99_2" x1="271.181" y1="98.3366" x2="260.676" y2="190.331" gradientUnits="userSpaceOnUse">
<stop stop-color="#491C53"/>
<stop offset="1" stop-color="#491C53"/>
</linearGradient>
<linearGradient id="paint14_linear_99_2" x1="154.485" y1="94.9294" x2="208.432" y2="117.644" gradientUnits="userSpaceOnUse">
<stop stop-color="#F7D938"/>
<stop offset="0.779514" stop-color="#FF2C8D"/>
</linearGradient>
<linearGradient id="paint15_linear_99_2" x1="208.432" y1="121.051" x2="255.565" y2="96.633" gradientUnits="userSpaceOnUse">
<stop offset="0.253472" stop-color="#FF2B91"/>
<stop offset="1" stop-color="#F8BC3D"/>
</linearGradient>
<linearGradient id="paint16_linear_99_2" x1="182.31" y1="65.4003" x2="229" y2="83" gradientUnits="userSpaceOnUse">
<stop offset="0.112847" stop-color="#6F2474"/>
<stop offset="0.85243" stop-color="#20A2BC"/>
</linearGradient>
<linearGradient id="paint17_linear_99_2" x1="184.582" y1="136.952" x2="240.8" y2="136.952" gradientUnits="userSpaceOnUse">
<stop stop-color="#8DBC69"/>
<stop offset="1" stop-color="#6F916A"/>
</linearGradient>
<linearGradient id="paint18_linear_99_2" x1="153.917" y1="178.406" x2="191.964" y2="197.145" gradientUnits="userSpaceOnUse">
<stop stop-color="#1CC1CC"/>
<stop offset="1" stop-color="#4286B3"/>
</linearGradient>
<linearGradient id="paint19_linear_99_2" x1="238.529" y1="204.528" x2="268.058" y2="181.813" gradientUnits="userSpaceOnUse">
<stop offset="0.0920137" stop-color="#2E96BD"/>
<stop offset="1" stop-color="#1BB9C5"/>
</linearGradient>
<linearGradient id="paint20_linear_99_2" x1="184.582" y1="182.381" x2="216.382" y2="174.999" gradientUnits="userSpaceOnUse">
<stop stop-color="#D97422"/>
<stop offset="1" stop-color="#A2B03A"/>
</linearGradient>
<linearGradient id="paint21_linear_99_2" x1="208.432" y1="190.899" x2="208.432" y2="234.057" gradientUnits="userSpaceOnUse">
<stop offset="0.180555" stop-color="#AE1E7B"/>
<stop offset="0.763889" stop-color="#DF0D91"/>
</linearGradient>
<linearGradient id="paint22_linear_99_2" x1="149.374" y1="235.193" x2="132.906" y2="265.29" gradientUnits="userSpaceOnUse">
<stop offset="0.128472" stop-color="#F26F20"/>
<stop offset="1" stop-color="#EE9316"/>
</linearGradient>
<linearGradient id="paint23_linear_99_2" x1="266.923" y1="209.639" x2="282.823" y2="264.722" gradientUnits="userSpaceOnUse">
<stop offset="0.206597" stop-color="#DA6336"/>
<stop offset="1" stop-color="#F18B1E"/>
</linearGradient>
<linearGradient id="paint24_linear_99_2" x1="207.864" y1="227.81" x2="208.432" y2="290.276" gradientUnits="userSpaceOnUse">
<stop offset="0.123264" stop-color="#F9D72D"/>
<stop offset="0.810764" stop-color="#FE0E98"/>
</linearGradient>
<linearGradient id="paint25_linear_99_2" x1="207.864" y1="268.697" x2="207.864" y2="318.669" gradientUnits="userSpaceOnUse">
<stop offset="0.243055" stop-color="#651C6B"/>
<stop offset="1" stop-color="#19B4C2"/>
</linearGradient>
<linearGradient id="paint26_linear_99_2" x1="207.864" y1="310.719" x2="207.864" y2="348.198" gradientUnits="userSpaceOnUse">
<stop offset="0.123264" stop-color="#E86923"/>
<stop offset="0.925347" stop-color="#94B339"/>
</linearGradient>
<linearGradient id="paint27_linear_99_2" x1="207.864" y1="348.198" x2="208.432" y2="373.752" gradientUnits="userSpaceOnUse">
<stop offset="0.269097" stop-color="#923586"/>
<stop offset="0.779514" stop-color="#F1DF28"/>
</linearGradient>
<linearGradient id="paint28_linear_99_2" x1="207.864" y1="381.702" x2="207.864" y2="410.663" gradientUnits="userSpaceOnUse">
<stop offset="0.123264" stop-color="#E4693C"/>
<stop offset="0.831597" stop-color="#99AC34"/>
</linearGradient>
<linearGradient id="paint29_linear_99_2" x1="207.864" y1="407.824" x2="207.864" y2="428.835" gradientUnits="userSpaceOnUse">
<stop stop-color="#C2175C"/>
<stop offset="1" stop-color="#20CEDD"/>
</linearGradient>
<linearGradient id="paint30_linear_99_2" x1="208.432" y1="437.921" x2="208.432" y2="459.5" gradientUnits="userSpaceOnUse">
<stop stop-color="#E05A2A"/>
<stop offset="1" stop-color="#F89E17"/>
</linearGradient>
<linearGradient id="paint31_linear_99_2" x1="163.003" y1="414.071" x2="195.939" y2="441.896" gradientUnits="userSpaceOnUse">
<stop stop-color="#99CE5E"/>
<stop offset="1" stop-color="#5B7762"/>
</linearGradient>
</defs>
</svg>
