<svg width="106" height="61" viewBox="0 0 106 61" fill="none" xmlns="http://www.w3.org/2000/svg">
<path d="M57.2406 14.6788C56.635 15.0972 56.124 15.4347 55.63 15.7996C55.408 15.9624 55.2726 15.9957 55.0836 15.7342C54.2755 14.6134 53.4446 13.5081 52.5852 12.3481C53.9921 11.9285 55.0711 11.106 55.8337 9.8521C56.4593 8.80985 56.8656 7.6406 57.0255 6.42193C57.1472 5.5638 57.1393 5.56261 57.9451 5.56261C60.0122 5.56261 62.0804 5.57449 64.1474 5.5531C64.5446 5.5531 64.6505 5.65413 64.6493 6.07369C64.6372 14.3737 64.6372 22.673 64.6493 30.9715C64.6493 31.4053 64.5207 31.4861 64.1371 31.4826C62.0325 31.4636 59.9257 31.4576 57.8211 31.4826C57.3533 31.4885 57.2269 31.3744 57.2281 30.8728C57.2485 25.7228 57.2406 20.5728 57.2406 15.4217V14.6788Z" fill="#E73273"/>
<path d="M97.1925 14.9201C96.6985 15.26 96.2819 15.5227 95.8881 15.8269C95.6604 16.0016 95.5466 15.96 95.3873 15.7437C94.5723 14.6277 93.7471 13.5199 92.9276 12.4158C93.03 12.2446 93.1916 12.247 93.3294 12.1971C95.492 11.4055 97.1925 8.89292 97.1925 6.49204C97.2034 6.33377 97.2034 6.17489 97.1925 6.01662C97.1413 5.64579 97.2824 5.55309 97.6307 5.55546C99.8101 5.5721 101.99 5.5721 104.17 5.55546C104.538 5.55546 104.601 5.67432 104.601 6.03088C104.592 14.3642 104.592 22.6972 104.601 31.0297C104.601 31.4029 104.5 31.4885 104.156 31.4861C101.994 31.4706 99.8309 31.4659 97.6683 31.4861C97.2517 31.4861 97.1811 31.347 97.1823 30.9501C97.1944 25.8631 97.1971 20.7761 97.1902 15.6891L97.1925 14.9201Z" fill="#E73273"/>
<path d="M40.6463 9.34932C39.6287 9.95786 38.5132 10.3465 37.4683 10.8944C37.2475 10.7673 37.2862 10.52 37.2407 10.3204C36.9766 9.25067 36.7342 8.18097 36.4439 7.02569C33.8055 9.63101 31.29 12.1983 28.7597 14.7596C28.6106 14.8785 28.4342 14.9498 28.3295 15.1162C25.4611 16.4545 22.5924 17.7932 19.7233 19.1323C19.5881 19.2045 19.4366 19.2369 19.2851 19.2262C20.2947 18.1827 21.2952 17.1296 22.3151 16.0979C27.5031 10.8517 32.6935 5.60576 37.8861 0.36027C38.388 -0.147243 38.388 -0.147243 38.5554 0.544497C39.2299 3.34236 39.9045 6.14022 40.5791 8.93808C40.611 9.07476 40.6235 9.21382 40.6463 9.34932Z" fill="#9E1FDA"/>
<path d="M91.0757 43.7817C91.0757 46.0198 91.062 48.2982 91.0871 50.5719C91.0871 51.0474 90.9983 51.2625 90.502 51.2138C90.0668 51.1775 89.6294 51.1775 89.1942 51.2138C88.7969 51.2411 88.666 51.0949 88.6706 50.6753C88.6865 48.9923 88.6706 47.3093 88.6706 45.6252C88.6706 42.7726 88.6797 39.9201 88.6547 37.0676C88.6547 36.5066 88.7901 36.3128 89.3501 36.3295C90.691 36.3687 90.6887 36.3414 91.202 37.6048C92.1411 39.9142 93.0824 42.2223 94.0476 44.5792C94.1728 44.4188 94.1295 44.2655 94.1284 44.1288C94.1003 41.8119 94.0696 39.4958 94.0362 37.1805C94.026 36.3485 94.0294 36.3485 94.8466 36.3425C96.3946 36.3425 96.3946 36.3425 96.3946 37.9423C96.3946 42.1605 96.3946 46.3811 96.4128 50.5969C96.4128 51.0961 96.266 51.1638 95.8175 51.2292C94.784 51.3766 94.2912 50.9344 93.8939 49.9622C93.0972 48.0177 92.1695 46.1339 91.2942 44.225C91.2123 44.0539 91.1258 43.8839 91.0757 43.7817Z" fill="#9E1FDA"/>
<path d="M97.9904 43.6973C97.9904 42.5884 97.9802 41.4794 97.9904 40.3693C98.0009 39.268 98.4264 38.2152 99.1748 37.4391C99.9232 36.6629 100.934 36.2259 101.989 36.2225C104.237 36.2225 105.942 37.9732 105.989 40.3301C106.012 41.4497 106.012 41.4509 104.919 41.4485C104.502 41.4485 104.018 41.5757 103.686 41.3974C103.323 41.2013 103.572 40.6415 103.495 40.2469C103.298 39.2878 102.698 38.7363 101.839 38.8207C101.072 38.892 100.489 39.6099 100.487 40.5203C100.48 42.6977 100.48 44.8767 100.487 47.0573C100.487 47.9797 101.07 48.6761 101.852 48.7332C102.724 48.7962 103.339 48.2578 103.498 47.2962C103.505 47.257 103.514 47.2178 103.519 47.1774C103.666 46.0102 103.645 45.9662 102.548 45.9888C102.119 45.9971 101.926 45.9032 101.969 45.4076C102.003 44.8932 102.003 44.3769 101.969 43.8625C101.95 43.4869 102.098 43.3871 102.433 43.3871C103.476 43.4021 104.519 43.4021 105.562 43.3871C105.879 43.3871 105.997 43.4905 105.991 43.8304C105.974 45.019 106.015 46.2075 105.968 47.3961C105.882 49.6092 104.099 51.3302 101.955 51.3183C99.8457 51.3112 98.0598 49.5271 97.9938 47.32C97.9585 46.1136 97.9881 44.9049 97.9881 43.6961L97.9904 43.6973Z" fill="#9E1FDA"/>
<path d="M44.5106 40.0389C44.679 38.3595 44.852 36.6801 45.0137 34.9994C45.1855 33.2166 45.3494 31.4409 45.5179 29.6604C45.5338 29.4881 45.4747 29.3039 45.5885 29.147C45.6602 30.6232 46.1576 31.9995 46.4991 33.4163C48.0095 39.7584 49.5518 46.0922 51.0816 52.4332C51.118 52.583 51.1397 52.7363 51.1829 52.9645L43.4702 50.7157L43.8219 47.0633C44.2772 46.9278 44.6631 47.2012 45.0808 47.2903C45.4314 47.3652 45.7638 47.528 46.1861 47.5815C45.749 45.013 44.8463 42.5919 44.5106 40.0389Z" fill="#9E1FDA"/>
<path d="M55.8781 43.6236C55.9396 42.4232 55.7643 41.0314 55.9794 39.655C56.3141 37.5311 58.125 36.0965 60.2466 36.2367C62.1509 36.3627 63.758 38.1028 63.865 40.159C63.9356 41.4878 63.9356 41.4902 62.6642 41.4866C62.2863 41.4866 61.8322 41.5959 61.5522 41.4177C61.2722 41.2394 61.4793 40.7212 61.4383 40.3551C61.3154 39.3971 60.6712 38.7886 59.7947 38.823C58.9627 38.8563 58.397 39.5136 58.3913 40.506C58.3799 42.6644 58.3833 44.8241 58.3913 46.9825C58.3913 48.0094 58.9547 48.6952 59.7982 48.7403C60.6416 48.7855 61.3211 48.1271 61.4383 47.1275C61.4793 46.7769 61.2904 46.3086 61.526 46.1006C61.8196 45.8415 62.2897 46.0376 62.6824 46.0043C62.7382 46.0043 62.7962 46.0043 62.8532 46.0043C64.0301 46.0043 64.0255 46.0043 63.9265 47.2463C63.7876 48.9947 62.9943 50.3045 61.4474 50.9986C59.9871 51.6547 58.5803 51.417 57.3498 50.3592C56.404 49.5509 55.9225 48.4717 55.8952 47.1976C55.8588 46.0602 55.8781 44.931 55.8781 43.6236Z" fill="#9E1FDA"/>
<path d="M86.8471 43.7698C86.8471 46.0661 86.8357 48.3624 86.8585 50.6634C86.8585 51.1139 86.739 51.2505 86.3167 51.2184C85.8057 51.1858 85.2933 51.1858 84.7823 51.2184C84.4238 51.2386 84.3362 51.0996 84.3373 50.743C84.3494 46.091 84.3528 41.4394 84.3475 36.7883C84.3475 36.4543 84.4386 36.333 84.7653 36.3473C85.3139 36.3711 85.8659 36.3782 86.4134 36.3473C86.7924 36.3247 86.8425 36.4971 86.8414 36.8334C86.83 39.1499 86.8357 41.4688 86.8357 43.7817L86.8471 43.7698Z" fill="#9E1FDA"/>
<path d="M12.0483 37.6405C13.1068 38.1789 13.9742 39.0109 14.9291 39.705C16.5853 40.909 18.2084 42.1617 19.8429 43.3978C19.9572 43.4986 20.0642 43.6082 20.1627 43.7258C18.7331 43.4251 17.3513 42.9378 15.9513 42.5254C11.0151 41.0714 6.08279 39.6099 1.15425 38.1409C1.02905 38.1028 0.906116 38.0553 0.681885 37.978L5.79255 32.8732C6.75685 33.4969 7.67839 34.1899 8.55048 34.9472C8.51975 35.3276 8.20901 35.4952 7.99502 35.7352C7.61599 36.1667 7.6103 36.1809 8.16462 36.3497C9.21862 36.6718 10.276 36.9761 11.33 37.3006C11.5863 37.3701 11.8293 37.4851 12.0483 37.6405Z" fill="#9E1FDA"/>
<path d="M44.4446 7.63901C43.1777 8.20595 41.9519 8.8751 40.6463 9.34934C40.4188 9.35677 40.1965 9.42205 39.9986 9.53951C39.129 9.9662 38.2367 10.3418 37.3659 10.7685C34.5397 12.0759 31.7089 13.3726 28.8986 14.7157C28.696 14.8179 28.4786 14.8832 28.276 14.9843C25.2893 16.4248 22.2365 17.7179 19.284 19.231C19.021 19.3867 18.7672 19.565 18.494 19.6933C16.9574 20.416 15.4208 21.1267 13.8785 21.841C9.40145 23.921 4.9244 26.0046 0.447358 28.0917C0.283453 28.1677 -0.0602934 28.1095 0.0091388 28.4922C1.28737 29.443 2.57244 30.3844 3.84157 31.3447C4.49719 31.8427 5.1972 32.2801 5.78794 32.8696C5.87103 33.0848 6.05657 33.1953 6.22389 33.3177C6.97967 33.8704 7.72294 34.4397 8.4662 35.009C9.64883 35.9123 10.8758 36.7527 12.0061 37.7308C13.0647 38.3869 14.0071 39.2177 15.0179 39.9451C16.7446 41.1883 18.3631 42.5908 20.1638 43.7235C20.4028 43.8804 20.6521 44.0218 20.8809 44.1989C27.9015 49.492 34.9206 54.7878 41.9382 60.0863C42.0839 60.1957 42.2899 60.248 42.332 60.4738H42.4459C42.5976 59.0048 42.7494 57.5349 42.9011 56.0643C43.0878 54.2815 43.2775 52.4986 43.4703 50.7158C43.6285 50.5446 43.6251 50.32 43.6535 50.1061C43.7947 49.0875 43.8607 48.0606 43.979 47.0396C44.2196 44.7061 44.4491 42.3721 44.6677 40.0378C44.9796 36.4092 45.5783 32.8066 45.5908 29.1495C46.3614 21.4714 47.132 13.7945 47.9094 6.03802C46.6926 6.59902 45.5737 7.13506 44.4446 7.63901ZM43.4486 16.8574C43.1944 19.393 42.9387 21.9266 42.6815 24.4582C42.3931 27.306 42.1067 30.1534 41.8221 33.0004C41.5045 36.2023 41.2006 39.4055 40.8762 42.6075C40.6645 44.7088 40.4209 46.8066 40.2058 48.9068C40.0533 50.3996 39.9372 51.896 39.7858 53.39C39.7152 54.0794 39.6936 54.077 39.1655 53.6765C35.8418 51.1559 32.5178 48.6362 29.1934 46.1173C23.2845 41.6634 17.3717 37.215 11.4552 32.7722C10.0279 31.6993 8.59976 30.6237 7.1709 29.5453C6.54373 29.0698 6.54942 29.0556 7.23691 28.7382C11.7011 26.6781 16.1648 24.6179 20.6282 22.5577C26.415 19.868 32.187 17.1439 37.984 14.4756C39.7414 13.6674 41.4852 12.8259 43.2472 12.026C43.452 11.9333 43.6455 11.7989 43.9438 11.8073C43.7787 13.5224 43.616 15.1899 43.4486 16.8574Z" fill="#E73273"/>
<path d="M80.1315 6.39344C77.8785 6.39063 75.6753 7.08609 73.8011 8.39174C71.9268 9.69739 70.4658 11.5545 69.6031 13.7278C68.7404 15.9012 68.5148 18.293 68.9548 20.6004C69.3949 22.9077 70.4808 25.0268 72.075 26.6892C73.6693 28.3516 75.7002 29.4826 77.9105 29.9388C80.1207 30.3951 82.411 30.1561 84.4911 29.2522C86.5712 28.3483 88.3476 26.8201 89.5954 24.8612C90.8431 22.9023 91.5061 20.6007 91.5002 18.2481C91.4924 15.1037 90.2916 12.0906 88.1608 9.86873C86.03 7.64685 83.1428 6.3972 80.1315 6.39344ZM80.2146 24.2217C78.7384 24.217 77.3242 23.6013 76.2819 22.5097C75.2396 21.418 74.6544 19.9393 74.6544 18.3978C74.6544 15.1887 77.1665 12.5656 80.2203 12.5739C80.9528 12.5739 81.678 12.7246 82.3547 13.0172C83.0314 13.3099 83.6462 13.7389 84.1641 14.2797C84.682 14.8205 85.0928 15.4625 85.3731 16.1691C85.6534 16.8757 85.7977 17.633 85.7977 18.3978C85.7977 19.1626 85.6534 19.9199 85.3731 20.6265C85.0928 21.3331 84.682 21.9751 84.1641 22.5159C83.6462 23.0567 83.0314 23.4857 82.3547 23.7784C81.678 24.0711 80.9528 24.2217 80.2203 24.2217H80.2146Z" fill="#E73273"/>
<path d="M82.7279 40.4859C82.6971 38.2181 80.8771 36.3663 78.6997 36.3461C77.5432 36.3354 76.3868 36.364 75.2315 36.3331C74.8092 36.3224 74.684 36.4388 74.6886 36.8905C74.7102 39.1856 74.6977 41.4807 74.6977 43.7769H74.6681C74.6681 44.9235 74.6681 46.0724 74.6681 47.2237C74.6681 48.3707 74.6783 49.5188 74.6567 50.6705C74.6487 51.0604 74.7216 51.2339 75.1473 51.222C76.3026 51.1911 77.459 51.222 78.6143 51.203C79.6971 51.1758 80.7281 50.714 81.4933 49.9137C82.2585 49.1133 82.699 48.0359 82.7233 46.9052C82.7552 44.7634 82.7567 42.6237 82.7279 40.4859ZM80.2545 41.5555C80.1839 43.2326 80.2443 44.9156 80.2386 46.595C80.2386 47.881 79.5454 48.5989 78.3036 48.6227C77.1653 48.6452 77.1653 48.6452 77.1653 47.4531C77.1653 46.2281 77.1653 45.0027 77.1653 43.7769H77.1824C77.1824 42.3507 77.1949 40.9304 77.1744 39.5077C77.1688 39.0929 77.2462 38.9407 77.6946 38.9134C79.6968 38.7981 80.3421 39.4459 80.2545 41.5544V41.5555Z" fill="#9E1FDA"/>
<path d="M73.136 40.3658C73.0882 38.1503 71.4059 36.3247 69.4174 36.2296C67.2229 36.1238 65.3812 37.663 65.1536 39.9403C65.0284 41.193 65.1308 42.4707 65.1308 43.7377H65.0955C65.0955 44.8656 65.0841 45.9959 65.0955 47.1215C65.1228 49.4083 66.9167 51.3005 69.0645 51.3195C70.1301 51.3338 71.1579 50.9077 71.9238 50.134C72.6897 49.3603 73.1315 48.3018 73.1531 47.1893C73.1884 44.9179 73.1884 42.6407 73.136 40.3658ZM70.6638 47.0443C70.6638 48.0022 69.9592 48.7403 69.1101 48.732C68.2427 48.7249 67.6122 48.0189 67.6042 47.0122C67.5951 45.9246 67.6042 44.8359 67.6042 43.7484C67.6042 42.6787 67.6042 41.609 67.6042 40.5453C67.611 39.5136 68.1995 38.8337 69.0839 38.8123C70.0047 38.7909 70.6399 39.4542 70.6501 40.5191C70.674 42.6942 70.6729 44.8692 70.6638 47.0443Z" fill="#9E1FDA"/>
</svg>
