<svg width="108" height="61" viewBox="0 0 108 61" fill="none" xmlns="http://www.w3.org/2000/svg">
<path d="M58.6554 14.6788C58.0498 15.0972 57.5388 15.4347 57.0448 15.7996C56.8228 15.9624 56.6874 15.9957 56.4984 15.7342C55.6903 14.6134 54.8594 13.5081 54 12.3481C55.4069 11.9285 56.4859 11.106 57.2485 9.8521C57.8741 8.80985 58.2804 7.6406 58.4403 6.42193C58.562 5.5638 58.5541 5.56261 59.3599 5.56261C61.427 5.56261 63.4952 5.57449 65.5622 5.5531C65.9594 5.5531 66.0653 5.65413 66.0641 6.07369C66.052 14.3737 66.052 22.673 66.0641 30.9715C66.0641 31.4053 65.9355 31.4861 65.5519 31.4826C63.4473 31.4636 61.3405 31.4576 59.2359 31.4826C58.7681 31.4885 58.6417 31.3744 58.6429 30.8728C58.6633 25.7228 58.6554 20.5728 58.6554 15.4217V14.6788Z" fill="#E73273"/>
<path d="M98.6073 14.9201C98.1133 15.26 97.6967 15.5227 97.3029 15.8269C97.0752 16.0016 96.9614 15.96 96.8021 15.7437C95.9871 14.6277 95.1619 13.5199 94.3424 12.4158C94.4448 12.2446 94.6064 12.247 94.7442 12.1971C96.9068 11.4055 98.6073 8.89292 98.6073 6.49204C98.6182 6.33377 98.6182 6.17489 98.6073 6.01662C98.5561 5.64579 98.6972 5.55309 99.0455 5.55546C101.225 5.5721 103.405 5.5721 105.585 5.55546C105.953 5.55546 106.016 5.67432 106.016 6.03088C106.007 14.3642 106.007 22.6972 106.016 31.0297C106.016 31.4029 105.915 31.4885 105.571 31.4861C103.409 31.4706 101.246 31.4659 99.0831 31.4861C98.6665 31.4861 98.5959 31.347 98.5971 30.9501C98.6092 25.8631 98.6119 20.7761 98.605 15.6891L98.6073 14.9201Z" fill="#E73273"/>
<path d="M40.6463 9.34932C39.6287 9.95786 38.5132 10.3465 37.4683 10.8944C37.2475 10.7673 37.2862 10.52 37.2407 10.3204C36.9766 9.25067 36.7342 8.18097 36.4439 7.02569C33.8055 9.63101 31.29 12.1983 28.7597 14.7596C28.6106 14.8785 28.4342 14.9498 28.3295 15.1162C25.4611 16.4545 22.5924 17.7932 19.7233 19.1323C19.5881 19.2045 19.4366 19.2369 19.2851 19.2262C20.2947 18.1827 21.2952 17.1296 22.3151 16.0979C27.5031 10.8517 32.6935 5.60576 37.8861 0.36027C38.388 -0.147243 38.388 -0.147243 38.5554 0.544497C39.2299 3.34236 39.9045 6.14022 40.5791 8.93808C40.611 9.07476 40.6235 9.21382 40.6463 9.34932Z" fill="#9E1FDA"/>
<path d="M92.4905 43.7817C92.4905 46.0198 92.4768 48.2982 92.5019 50.5719C92.5019 51.0474 92.4131 51.2625 91.9168 51.2138C91.4816 51.1775 91.0442 51.1775 90.609 51.2138C90.2117 51.2411 90.0808 51.0949 90.0854 50.6753C90.1013 48.9923 90.0854 47.3093 90.0854 45.6252C90.0854 42.7726 90.0945 39.9201 90.0695 37.0676C90.0695 36.5066 90.2049 36.3128 90.7649 36.3295C92.1058 36.3687 92.1035 36.3414 92.6168 37.6048C93.5559 39.9142 94.4972 42.2223 95.4624 44.5792C95.5876 44.4188 95.5443 44.2655 95.5432 44.1288C95.5151 41.8119 95.4844 39.4958 95.451 37.1805C95.4408 36.3485 95.4442 36.3485 96.2614 36.3425C97.8094 36.3425 97.8094 36.3425 97.8094 37.9423C97.8094 42.1605 97.8094 46.3811 97.8276 50.5969C97.8276 51.0961 97.6808 51.1638 97.2323 51.2292C96.1988 51.3766 95.706 50.9344 95.3087 49.9622C94.512 48.0177 93.5843 46.1339 92.709 44.225C92.6271 44.0539 92.5406 43.8839 92.4905 43.7817Z" fill="#9E1FDA"/>
<path d="M99.4052 43.6973C99.4052 42.5884 99.395 41.4794 99.4052 40.3693C99.4157 39.268 99.8412 38.2152 100.59 37.4391C101.338 36.6629 102.349 36.2259 103.404 36.2225C105.652 36.2225 107.357 37.9732 107.404 40.3301C107.427 41.4497 107.427 41.4509 106.334 41.4485C105.917 41.4485 105.433 41.5757 105.101 41.3974C104.738 41.2013 104.987 40.6415 104.91 40.2469C104.713 39.2878 104.113 38.7363 103.254 38.8207C102.487 38.892 101.904 39.6099 101.902 40.5203C101.895 42.6977 101.895 44.8767 101.902 47.0573C101.902 47.9797 102.485 48.6761 103.267 48.7332C104.139 48.7962 104.754 48.2578 104.913 47.2962C104.92 47.257 104.929 47.2178 104.934 47.1774C105.081 46.0102 105.06 45.9662 103.963 45.9888C103.534 45.9971 103.341 45.9032 103.384 45.4076C103.418 44.8932 103.418 44.3769 103.384 43.8625C103.365 43.4869 103.513 43.3871 103.848 43.3871C104.891 43.4021 105.934 43.4021 106.977 43.3871C107.294 43.3871 107.412 43.4905 107.406 43.8304C107.389 45.019 107.43 46.2075 107.383 47.3961C107.297 49.6092 105.514 51.3302 103.37 51.3183C101.26 51.3112 99.4746 49.5271 99.4086 47.32C99.3733 46.1136 99.4029 44.9049 99.4029 43.6961L99.4052 43.6973Z" fill="#9E1FDA"/>
<path d="M44.5106 40.0389C44.679 38.3595 44.852 36.6801 45.0137 34.9994C45.1855 33.2166 45.3494 31.4409 45.5179 29.6604C45.5338 29.4881 45.4747 29.3039 45.5885 29.147C45.6602 30.6232 46.1576 31.9995 46.4991 33.4163C48.0095 39.7584 49.5518 46.0922 51.0816 52.4332C51.118 52.583 51.1397 52.7363 51.1829 52.9645L43.4702 50.7157L43.8219 47.0633C44.2772 46.9278 44.6631 47.2012 45.0808 47.2903C45.4314 47.3652 45.7638 47.528 46.1861 47.5815C45.749 45.013 44.8463 42.5919 44.5106 40.0389Z" fill="#9E1FDA"/>
<path d="M57.2929 43.6236C57.3544 42.4232 57.1791 41.0314 57.3942 39.655C57.7289 37.5311 59.5398 36.0965 61.6614 36.2367C63.5657 36.3627 65.1728 38.1028 65.2798 40.159C65.3504 41.4878 65.3504 41.4902 64.079 41.4866C63.7011 41.4866 63.247 41.5959 62.967 41.4177C62.687 41.2394 62.8941 40.7212 62.8531 40.3551C62.7302 39.3971 62.086 38.7886 61.2095 38.823C60.3775 38.8563 59.8118 39.5136 59.8061 40.506C59.7947 42.6644 59.7981 44.8241 59.8061 46.9825C59.8061 48.0094 60.3695 48.6952 61.213 48.7403C62.0564 48.7855 62.7359 48.1271 62.8531 47.1275C62.8941 46.7769 62.7052 46.3086 62.9408 46.1006C63.2344 45.8415 63.7045 46.0376 64.0972 46.0043C64.153 46.0043 64.211 46.0043 64.268 46.0043C65.4449 46.0043 65.4403 46.0043 65.3413 47.2463C65.2024 48.9947 64.4091 50.3045 62.8622 50.9986C61.4019 51.6547 59.9951 51.417 58.7646 50.3592C57.8188 49.5509 57.3373 48.4717 57.31 47.1976C57.2736 46.0602 57.2929 44.931 57.2929 43.6236Z" fill="#9E1FDA"/>
<path d="M88.2619 43.7698C88.2619 46.0661 88.2505 48.3624 88.2733 50.6634C88.2733 51.1139 88.1538 51.2505 87.7315 51.2184C87.2205 51.1858 86.7081 51.1858 86.1971 51.2184C85.8386 51.2386 85.751 51.0996 85.7521 50.743C85.7642 46.091 85.7676 41.4394 85.7623 36.7883C85.7623 36.4543 85.8534 36.333 86.1801 36.3473C86.7287 36.3711 87.2807 36.3782 87.8282 36.3473C88.2072 36.3247 88.2573 36.4971 88.2562 36.8334C88.2448 39.1499 88.2505 41.4688 88.2505 43.7817L88.2619 43.7698Z" fill="#9E1FDA"/>
<path d="M12.0483 37.6405C13.1068 38.1789 13.9742 39.0109 14.9291 39.705C16.5853 40.909 18.2084 42.1617 19.8429 43.3978C19.9572 43.4986 20.0642 43.6082 20.1627 43.7258C18.7331 43.4251 17.3513 42.9378 15.9513 42.5254C11.0151 41.0714 6.08279 39.6099 1.15425 38.1409C1.02905 38.1028 0.906116 38.0553 0.681885 37.978L5.79255 32.8732C6.75685 33.4969 7.67839 34.1899 8.55048 34.9472C8.51975 35.3276 8.20901 35.4952 7.99502 35.7352C7.61599 36.1667 7.6103 36.1809 8.16462 36.3497C9.21862 36.6718 10.276 36.9761 11.33 37.3006C11.5863 37.3701 11.8293 37.4851 12.0483 37.6405Z" fill="#9E1FDA"/>
<path d="M44.4446 7.63895C43.1777 8.20589 41.9519 8.87504 40.6463 9.34928C40.4188 9.35671 40.1965 9.42199 39.9986 9.53945C39.129 9.96614 38.2367 10.3417 37.3659 10.7684C34.5397 12.0758 31.7089 13.3725 28.8986 14.7156C28.696 14.8178 28.4786 14.8831 28.276 14.9842C25.2893 16.4247 22.2365 17.7178 19.284 19.2309C19.021 19.3866 18.7672 19.5649 18.494 19.6932C16.9574 20.4159 15.4208 21.1266 13.8785 21.8409C9.40145 23.9209 4.9244 26.0045 0.447358 28.0916C0.283453 28.1676 -0.0602934 28.1094 0.0091388 28.4921C1.28737 29.4429 2.57244 30.3843 3.84157 31.3446C4.49719 31.8426 5.1972 32.28 5.78794 32.8695C5.87103 33.0847 6.05657 33.1952 6.22389 33.3176C6.97967 33.8703 7.72294 34.4396 8.4662 35.0089C9.64883 35.9122 10.8758 36.7526 12.0061 37.7307C13.0647 38.3868 14.0071 39.2176 15.0179 39.945C16.7446 41.1882 18.3631 42.5907 20.1638 43.7234C20.4028 43.8803 20.6521 44.0217 20.8809 44.1988C27.9015 49.4919 34.9206 54.7877 41.9382 60.0862C42.0839 60.1956 42.2899 60.2479 42.332 60.4737H42.4459C42.5976 59.0047 42.7494 57.5348 42.9011 56.0642C43.0878 54.2814 43.2775 52.4985 43.4703 50.7157C43.6285 50.5445 43.6251 50.3199 43.6535 50.106C43.7947 49.0874 43.8607 48.0605 43.979 47.0395C44.2196 44.706 44.4491 42.372 44.6677 40.0377C44.9796 36.4091 45.5783 32.8065 45.5908 29.1494C46.3614 21.4713 47.132 13.7944 47.9094 6.03796C46.6926 6.59896 45.5737 7.135 44.4446 7.63895ZM43.4486 16.8573C43.1944 19.3929 42.9387 21.9265 42.6815 24.4581C42.3931 27.3059 42.1067 30.1533 41.8221 33.0003C41.5045 36.2022 41.2006 39.4054 40.8762 42.6074C40.6645 44.7087 40.4209 46.8065 40.2058 48.9067C40.0533 50.3995 39.9372 51.8959 39.7858 53.3899C39.7152 54.0793 39.6936 54.0769 39.1655 53.6764C35.8418 51.1558 32.5178 48.6361 29.1934 46.1172C23.2845 41.6633 17.3717 37.2149 11.4552 32.7721C10.0279 31.6992 8.59976 30.6236 7.1709 29.5452C6.54373 29.0697 6.54942 29.0555 7.23691 28.7381C11.7011 26.678 16.1648 24.6178 20.6282 22.5576C26.415 19.8679 32.187 17.1438 37.984 14.4755C39.7414 13.6673 41.4852 12.8258 43.2472 12.0259C43.452 11.9332 43.6455 11.7988 43.9438 11.8072C43.7787 13.5223 43.616 15.1898 43.4486 16.8573Z" fill="#E73273"/>
<path d="M81.5463 6.39344C79.2933 6.39063 77.0901 7.08609 75.2159 8.39174C73.3416 9.69739 71.8806 11.5545 71.0179 13.7278C70.1552 15.9012 69.9296 18.293 70.3696 20.6004C70.8097 22.9077 71.8956 25.0268 73.4898 26.6892C75.0841 28.3516 77.115 29.4826 79.3253 29.9388C81.5355 30.3951 83.8258 30.1561 85.9059 29.2522C87.986 28.3483 89.7624 26.8201 91.0102 24.8612C92.2579 22.9023 92.9209 20.6007 92.915 18.2481C92.9072 15.1037 91.7064 12.0906 89.5756 9.86873C87.4448 7.64685 84.5576 6.3972 81.5463 6.39344ZM81.6294 24.2217C80.1532 24.217 78.739 23.6013 77.6967 22.5097C76.6544 21.418 76.0692 19.9393 76.0692 18.3978C76.0692 15.1887 78.5813 12.5656 81.6351 12.5739C82.3676 12.5739 83.0928 12.7246 83.7695 13.0172C84.4462 13.3099 85.061 13.7389 85.5789 14.2797C86.0968 14.8205 86.5076 15.4625 86.7879 16.1691C87.0682 16.8757 87.2125 17.633 87.2125 18.3978C87.2125 19.1626 87.0682 19.9199 86.7879 20.6265C86.5076 21.3331 86.0968 21.9751 85.5789 22.5159C85.061 23.0567 84.4462 23.4857 83.7695 23.7784C83.0928 24.0711 82.3676 24.2217 81.6351 24.2217H81.6294Z" fill="#E73273"/>
<path d="M84.1427 40.4859C84.1119 38.2181 82.2919 36.3663 80.1145 36.3461C78.958 36.3354 77.8016 36.364 76.6463 36.3331C76.224 36.3224 76.0988 36.4388 76.1034 36.8905C76.125 39.1856 76.1125 41.4807 76.1125 43.7769H76.0829C76.0829 44.9235 76.0829 46.0724 76.0829 47.2237C76.0829 48.3707 76.0931 49.5188 76.0715 50.6705C76.0635 51.0604 76.1364 51.2339 76.5621 51.222C77.7174 51.1911 78.8738 51.222 80.0291 51.203C81.1119 51.1758 82.1429 50.714 82.9081 49.9137C83.6733 49.1133 84.1138 48.0359 84.1381 46.9052C84.17 44.7634 84.1715 42.6237 84.1427 40.4859ZM81.6693 41.5555C81.5987 43.2326 81.6591 44.9156 81.6534 46.595C81.6534 47.881 80.9602 48.5989 79.7184 48.6227C78.5801 48.6452 78.5801 48.6452 78.5801 47.4531C78.5801 46.2281 78.5801 45.0027 78.5801 43.7769H78.5972C78.5972 42.3507 78.6097 40.9304 78.5892 39.5077C78.5836 39.0929 78.661 38.9407 79.1094 38.9134C81.1116 38.7981 81.7569 39.4459 81.6693 41.5544V41.5555Z" fill="#9E1FDA"/>
<path d="M74.5508 40.3658C74.503 38.1503 72.8207 36.3247 70.8322 36.2296C68.6377 36.1238 66.796 37.663 66.5684 39.9403C66.4432 41.193 66.5456 42.4707 66.5456 43.7377H66.5103C66.5103 44.8656 66.4989 45.9959 66.5103 47.1215C66.5376 49.4083 68.3315 51.3005 70.4793 51.3195C71.5449 51.3338 72.5727 50.9077 73.3386 50.134C74.1045 49.3603 74.5463 48.3018 74.5679 47.1893C74.6032 44.9179 74.6032 42.6407 74.5508 40.3658ZM72.0786 47.0443C72.0786 48.0022 71.374 48.7403 70.5249 48.732C69.6575 48.7249 69.027 48.0189 69.019 47.0122C69.0099 45.9246 69.019 44.8359 69.019 43.7484C69.019 42.6787 69.019 41.609 69.019 40.5453C69.0258 39.5136 69.6143 38.8337 70.4987 38.8123C71.4195 38.7909 72.0547 39.4542 72.0649 40.5191C72.0888 42.6942 72.0877 44.8692 72.0786 47.0443Z" fill="#9E1FDA"/>
</svg>
